<?xml version="1.0" standalone="no"?><!DOCTYPE svg PUBLIC "-//W3C//DTD SVG 1.1//EN" "http://www.w3.org/Graphics/SVG/1.1/DTD/svg11.dtd"><svg t="1660370751736" class="icon" viewBox="0 0 1211 1024" version="1.1" xmlns="http://www.w3.org/2000/svg" p-id="2187" xmlns:xlink="http://www.w3.org/1999/xlink" width="37.84375" height="32"><defs><style type="text/css"></style></defs><path d="M597.333333 512m-366.933333 0a366.933333 366.933333 0 1 0 733.866667 0 366.933333 366.933333 0 1 0-733.866667 0Z" fill="#E9EAEB" p-id="2188"></path><path d="M797.013333 694.613333m-295.253333 0a295.253333 295.253333 0 1 0 590.506667 0 295.253333 295.253333 0 1 0-590.506667 0Z" fill="#FFFFFF" p-id="2189"></path><path d="M797.013333 1006.933333c-172.373333 0-312.32-139.946667-312.32-312.32s139.946667-312.32 312.32-312.32S1109.333333 523.946667 1109.333333 694.613333 969.386667 1006.933333 797.013333 1006.933333z m0-588.8c-153.6 0-278.186667 124.586667-278.186666 278.186667S643.413333 972.8 797.013333 972.8 1075.2 848.213333 1075.2 694.613333s-124.586667-276.48-278.186667-276.48zM235.741867 283.170133l138.786133-138.769066 24.132267 24.132266-138.786134 138.769067z" fill="#2A5082" p-id="2190"></path><path d="M342.016 113.015467l79.633067-79.650134 95.351466 95.3344-79.650133 79.650134z" fill="#FFFFFF" p-id="2191"></path><path d="M438.613333 233.813333l-119.466666-119.466666L423.253333 10.24l119.466667 119.466667-104.106667 104.106666z m-71.68-121.173333l71.68 71.68L494.933333 128l-71.68-71.68-56.32 56.32z" fill="#2A5082" p-id="2192"></path><path d="M119.159467 321.194667l79.650133-79.6672 95.3344 95.351466-79.650133 79.633067z" fill="#FFFFFF" p-id="2193"></path><path d="M215.04 440.32l-119.466667-119.466667 104.106667-104.106666 119.466667 119.466666-104.106667 104.106667z m-71.68-119.466667l71.68 71.68 56.32-56.32-71.68-71.68-56.32 56.32zM473.736533 395.912533l24.149334-24.132266L546.133333 420.0448l-24.149333 24.132267z" fill="#2A5082" p-id="2194"></path><path d="M307.2 146.773333l122.88 122.88c-1.706667 17.066667-8.533333 34.133333-22.186667 46.08s-29.013333 20.48-46.08 22.186667L238.933333 215.04c1.706667-17.066667 8.533333-34.133333 22.186667-46.08 11.946667-13.653333 29.013333-20.48 46.08-22.186667z" fill="#E9EAEB" p-id="2195"></path><path d="M354.986667 354.986667L221.866667 220.16l1.706666-8.533333c1.706667-22.186667 11.946667-40.96 27.306667-56.32 15.36-15.36 34.133333-23.893333 56.32-27.306667l8.533333-1.706667 133.12 133.12-1.706666 8.533334c-1.706667 22.186667-11.946667 40.96-27.306667 56.32-15.36 15.36-34.133333 23.893333-56.32 27.306666l-8.533333 3.413334z m-97.28-146.773334l109.226666 109.226667c10.24-3.413333 20.48-8.533333 29.013334-15.36 8.533333-8.533333 13.653333-17.066667 15.36-29.013333l-109.226667-109.226667c-10.24 3.413333-20.48 8.533333-29.013333 15.36s-13.653333 18.773333-15.36 29.013333z" fill="#2A5082" p-id="2196"></path><path d="M378.88 486.4c-37.546667-56.32-32.426667-133.12 17.066667-182.613333 49.493333-49.493333 126.293333-54.613333 182.613333-17.066667L378.88 486.4z" fill="#A3D4FF" p-id="2197"></path><path d="M377.173333 512l-11.946666-17.066667c-42.666667-63.146667-35.84-150.186667 18.773333-204.8 54.613333-54.613333 139.946667-63.146667 204.8-18.773333l17.066667 11.946667L377.173333 512z m121.173334-233.813333c-32.426667 0-64.853333 11.946667-90.453334 37.546666-37.546667 37.546667-47.786667 95.573333-25.6 141.653334l167.253334-167.253334c-15.36-6.826667-34.133333-11.946667-51.2-11.946666z" fill="#2A5082" p-id="2198"></path><path d="M148.48 576.853333c-1.706667-17.066667-3.413333-35.84-3.413333-52.906666h34.133333c0 17.066667 1.706667 32.426667 3.413333 49.493333l-34.133333 3.413333zM165.546667 657.066667c-5.12-15.36-8.533333-30.72-11.946667-46.08l34.133333-6.826667c3.413333 15.36 6.826667 29.013333 11.946667 42.666667l-34.133333 10.24zM196.266667 727.04c-6.826667-13.653333-13.653333-27.306667-18.773334-40.96l32.426667-13.653333c5.12 11.946667 10.24 25.6 17.066667 37.546666l-30.72 17.066667zM477.866667 948.906667c-112.64-27.306667-208.213333-97.28-267.946667-196.266667l29.013333-17.066667c54.613333 90.453333 145.066667 157.013333 247.466667 180.906667l-8.533333 32.426667zM1006.933333 387.413333c-5.12-15.36-10.24-32.426667-17.066666-47.786666l30.72-13.653334c6.826667 17.066667 13.653333 34.133333 17.066666 51.2l-30.72 10.24zM976.213333 310.613333c-6.826667-13.653333-13.653333-25.6-22.186666-39.253333l29.013333-18.773333c8.533333 13.653333 17.066667 27.306667 23.893333 40.96l-30.72 17.066666zM936.96 249.173333c-8.533333-10.24-17.066667-20.48-27.306667-30.72l25.6-23.893333c10.24 10.24 20.48 22.186667 29.013334 34.133333l-27.306667 20.48zM892.586667 199.68c-76.8-71.68-182.613333-112.64-286.72-109.226667v-34.133333c116.053333-3.413333 226.986667 39.253333 310.613333 117.76l-23.893333 25.6z" fill="#BCC0C4" p-id="2199"></path><path d="M948.906667 711.68l-39.253334-39.253333h-63.146666l-32.426667-32.426667h-32.426667l-15.36-15.36h-90.453333v-58.026667l59.733333-39.253333h35.84v-22.186667l58.026667-58.026666h39.253333v34.133333h-23.893333l-39.253333 37.546667v42.666666h-59.733334l-35.84 23.893334v5.12h69.973334l17.066666 15.36h30.72l32.426667 32.426666h63.146667l25.6 25.6 23.893333-25.6h71.68v34.133334h-56.32z" fill="#2A5082" p-id="2200"></path><path d="M827.733333 943.786667h-46.08l-25.6-25.6v-80.213334L733.866667 815.786667h-51.2l-40.96-100.693334 61.44-61.44h78.506666l47.786667 47.786667h32.426667l80.213333 80.213333L887.466667 836.266667v47.786666l-59.733334 59.733334z m-30.72-34.133334h17.066667l37.546667-37.546666v-47.786667l40.96-40.96-46.08-46.08h-32.426667l-47.786667-47.786667H716.8l-34.133333 34.133334 23.893333 58.026666h42.666667l42.666666 42.666667V904.533333l5.12 5.12z" fill="#2A5082" p-id="2201"></path></svg>